<svg width="30" height="23" viewBox="0 0 30 23" fill="none" xmlns="http://www.w3.org/2000/svg">
<path d="M14.9777 0.0898438C16.8944 0.0898438 18.4592 0.112305 19.6721 0.157227C20.7053 0.202148 21.6262 0.381836 22.4348 0.696289C23.2134 0.995768 23.8872 1.43001 24.4562 1.99902C25.0252 2.56803 25.4595 3.24186 25.759 4.02051C26.0734 4.8291 26.2531 5.75 26.298 6.7832C26.343 7.99609 26.3654 9.56087 26.3654 11.4775C26.3654 13.3942 26.343 14.959 26.298 16.1719C26.2531 17.2051 26.0734 18.126 25.759 18.9346C25.4595 19.7132 25.0252 20.387 24.4562 20.9561C23.8872 21.5251 23.2134 21.9593 22.4348 22.2588C21.6262 22.5732 20.7053 22.7529 19.6721 22.7978C18.4592 22.8428 16.8944 22.8652 14.9777 22.8652C13.0611 22.8652 11.4963 22.8428 10.2834 22.7978C9.25018 22.7529 8.32928 22.5732 7.52069 22.2588C6.74205 21.9593 6.06822 21.5251 5.49921 20.9561C4.9302 20.387 4.49595 19.7132 4.19647 18.9346C3.88202 18.126 3.70233 17.2051 3.65741 16.1719C3.61249 14.959 3.59003 13.3942 3.59003 11.4775C3.59003 9.56087 3.61249 7.99609 3.65741 6.7832C3.70233 5.75 3.88202 4.8291 4.19647 4.02051C4.49595 3.24186 4.9302 2.56803 5.49921 1.99902C6.06822 1.43001 6.74205 0.995768 7.52069 0.696289C8.32928 0.381836 9.25018 0.202148 10.2834 0.157227C11.4963 0.112305 13.0611 0.0898438 14.9777 0.0898438ZM14.9777 1.57227C12.9862 1.57227 11.3615 1.59473 10.1037 1.63965C9.2951 1.6696 8.54641 1.81185 7.8576 2.06641C6.77948 2.51562 6.01581 3.2793 5.56659 4.35742C5.31203 5.04622 5.16978 5.79492 5.13983 6.60352C5.09491 7.86133 5.07245 9.486 5.07245 11.4775C5.07245 13.4691 5.09491 15.0937 5.13983 16.3516C5.16978 17.1602 5.31203 17.9089 5.56659 18.5977C6.01581 19.6758 6.77948 20.4395 7.8576 20.8887C8.54641 21.1432 9.2951 21.2855 10.1037 21.3154C11.3615 21.3603 12.9862 21.3828 14.9777 21.3828C16.9693 21.3828 18.5939 21.3603 19.8517 21.3154C20.6603 21.2855 21.409 21.1432 22.0978 20.8887C23.176 20.4395 23.9396 19.6758 24.3889 18.5977C24.6434 17.9089 24.7857 17.1602 24.8156 16.3516C24.8605 15.0937 24.883 13.4691 24.883 11.4775C24.883 9.486 24.8605 7.86133 24.8156 6.60352C24.7857 5.79492 24.6434 5.04622 24.3889 4.35742C23.9396 3.2793 23.176 2.51562 22.0978 2.06641C21.409 1.81185 20.6603 1.6696 19.8517 1.63965C18.5939 1.59473 16.9693 1.57227 14.9777 1.57227ZM14.9777 16.0371C16.2355 16.0371 17.3099 15.5916 18.2009 14.7007C19.0918 13.8097 19.5373 12.7354 19.5373 11.4775C19.5373 10.2197 19.0918 9.14534 18.2009 8.25439C17.3099 7.36344 16.2355 6.91797 14.9777 6.91797C13.7199 6.91797 12.6455 7.36344 11.7546 8.25439C10.8636 9.14534 10.4182 10.2197 10.4182 11.4775C10.4182 12.7354 10.8636 13.8097 11.7546 14.7007C12.6455 15.5916 13.7199 16.0371 14.9777 16.0371ZM14.9777 5.63769C16.5949 5.63769 17.9725 6.20671 19.1105 7.34473C20.2486 8.48275 20.8176 9.86035 20.8176 11.4775C20.8176 13.0947 20.2486 14.4723 19.1105 15.6104C17.9725 16.7484 16.5949 17.3174 14.9777 17.3174C13.3605 17.3174 11.9829 16.7484 10.8449 15.6104C9.70689 14.4723 9.13788 13.0947 9.13788 11.4775C9.13788 9.86035 9.70689 8.48275 10.8449 7.34473C11.9829 6.20671 13.3605 5.63769 14.9777 5.63769ZM22.4348 5.41309C22.4348 5.78743 22.3 6.10563 22.0305 6.36768C21.7609 6.62972 21.4315 6.76074 21.0422 6.76074C20.6678 6.76074 20.3496 6.62972 20.0876 6.36768C19.8255 6.10563 19.6945 5.78743 19.6945 5.41309C19.6945 5.02376 19.8255 4.69434 20.0876 4.4248C20.3496 4.15527 20.6678 4.02051 21.0422 4.02051C21.4165 4.02051 21.7422 4.15902 22.0192 4.43603C22.2962 4.71305 22.4348 5.03874 22.4348 5.41309Z" fill="currentColor"/>
</svg>
