<svg width="30" height="33" viewBox="0 0 30 33" fill="none" xmlns="http://www.w3.org/2000/svg">
<path d="M0.0914307 10.4896C0.0914307 9.63461 0.643326 9.17356 1.74712 9.1065L6.00052 9.13165C6.28599 9.13165 6.47629 9.25739 6.57145 9.50887C7.00916 10.7663 7.4992 11.8518 8.04159 12.7655C8.58397 13.6792 9.29287 14.7313 10.1683 15.9216C10.2444 16.0725 10.3681 16.1479 10.5394 16.1479C10.6726 16.1479 10.7773 16.0892 10.8534 15.9719L10.939 15.6953L10.9676 11.3447C10.9676 11.0429 10.8867 10.8417 10.7249 10.7411C10.5632 10.6405 10.2634 10.5651 9.82573 10.5148C9.48317 10.4645 9.3119 10.2801 9.3119 9.96153C9.3119 9.89447 9.32141 9.84417 9.34044 9.81064C9.74009 8.7209 10.8819 8.17603 12.766 8.17603L14.3646 8.15088C15.0878 8.15088 15.6872 8.31015 16.163 8.62869C16.6388 8.94723 16.8767 9.45019 16.8767 10.1376V15.8461C17.0099 15.93 17.1336 15.9719 17.2478 15.9719C17.5332 15.9719 17.7806 15.821 17.99 15.5192C20.0834 12.9374 21.2157 11.2105 21.387 10.3387C21.387 10.322 21.406 10.2801 21.4441 10.213C21.5773 9.96153 21.7962 9.74358 22.1007 9.55916C22.4051 9.37474 22.6716 9.24901 22.9 9.18194C22.9761 9.14841 23.0617 9.13165 23.1569 9.13165H27.5816L27.867 9.1568C28.2476 9.1568 28.5426 9.31607 28.752 9.63461C28.8281 9.7352 28.8804 9.84417 28.909 9.96153C28.9375 10.0789 28.9565 10.1962 28.966 10.3136C28.9756 10.431 28.9803 10.498 28.9803 10.5148V10.6908C28.8471 11.3782 28.5093 12.1117 27.9669 12.8913C27.4245 13.6708 26.7347 14.5133 25.8973 15.4186C25.06 16.324 24.5366 16.9191 24.3273 17.2041C24.156 17.4053 24.0704 17.5897 24.0704 17.7574C24.0704 17.8915 24.1465 18.0424 24.2987 18.2101L28.4665 22.8373C28.6949 23.1055 28.809 23.3989 28.809 23.7174C28.809 24.103 28.6378 24.4216 28.2952 24.6731C27.9527 24.9245 27.5435 25.0671 27.0677 25.1006L26.5824 25.1257H22.2434C22.2244 25.1257 22.1863 25.1299 22.1292 25.1383C22.0721 25.1467 22.034 25.1509 22.015 25.1509C21.5963 25.1509 21.2062 24.9916 20.8446 24.6731C20.7114 24.5389 19.8169 23.5498 18.1613 21.7056C18.0661 21.5883 17.9329 21.4793 17.7616 21.3787C17.6855 21.6469 17.5856 22.0325 17.4619 22.5355C17.3382 23.0385 17.2478 23.3989 17.1907 23.6169L17.105 24.0444C16.9147 24.6312 16.5151 24.9832 15.9061 25.1006L15.5065 25.1257H12.7089C11.1293 25.1257 9.55454 24.4887 7.98449 23.2145C6.41444 21.9403 5.0014 20.2931 3.74536 18.2729C2.48932 16.2527 1.31892 13.9014 0.234162 11.2189C0.139008 11.001 0.0914307 10.7579 0.0914307 10.4896ZM17.2478 17.003C16.8481 17.003 16.4865 16.9065 16.163 16.7137C15.8395 16.5209 15.6777 16.2569 15.6777 15.9216V10.1376C15.6777 9.80226 15.5826 9.56335 15.3923 9.42085C15.202 9.27834 14.8689 9.20709 14.3931 9.20709L12.766 9.25739C11.9477 9.25739 11.3292 9.38313 10.9105 9.63461C11.7479 9.98668 12.1665 10.5567 12.1665 11.3447V15.7707C12.1285 16.1898 11.9382 16.5377 11.5956 16.8143C11.253 17.091 10.8724 17.2293 10.4538 17.2293C9.88282 17.2293 9.44511 16.9862 9.14062 16.5C7.65621 14.5217 6.55242 12.644 5.82924 10.8669L5.57233 10.213L1.77566 10.1879C1.52826 10.1879 1.39029 10.2004 1.36174 10.2256C1.3332 10.2507 1.31892 10.322 1.31892 10.4393C1.31892 10.5902 1.33795 10.7495 1.37602 10.9172L1.97549 12.3254C3.57408 15.9635 5.31065 18.8304 7.18519 20.926C9.05974 23.0217 10.901 24.0695 12.7089 24.0695H15.5635C15.6777 24.0695 15.7634 24.0402 15.8205 23.9815C15.8776 23.9228 15.9251 23.8097 15.9632 23.642L16.0203 23.3905L16.5627 21.1775C16.7149 20.8757 16.8481 20.6745 16.9623 20.574C17.1717 20.3895 17.4191 20.2973 17.7045 20.2973C18.1613 20.2973 18.6275 20.5404 19.1033 21.0266L21.5297 23.7426C21.682 23.9605 21.8437 24.0695 22.015 24.0695H26.7252C27.2961 24.0695 27.5816 23.9438 27.5816 23.6923C27.5816 23.6085 27.553 23.5246 27.4959 23.4408L23.3567 18.889C23.0332 18.537 22.8714 18.1598 22.8714 17.7574C22.8714 17.355 23.0237 16.9694 23.3281 16.6006C23.5755 16.2653 24.0561 15.7078 24.7697 14.9282C25.4834 14.1487 26.1067 13.4194 26.6395 12.7404C27.1724 12.0614 27.5245 11.4453 27.6957 10.892L27.7814 10.5651C27.7623 10.5315 27.7528 10.4771 27.7528 10.4016C27.7528 10.3262 27.7433 10.2633 27.7243 10.213H23.2425C22.957 10.3136 22.7287 10.4645 22.5574 10.6657L22.3861 11.1435C21.9103 12.3003 20.6638 14.0858 18.6465 16.5C18.2469 16.8353 17.7806 17.003 17.2478 17.003Z" fill="currentColor"/>
</svg>
